<?xml version="1.0" standalone="no"?>
<!DOCTYPE svg PUBLIC "-//W3C//DTD SVG 20010904//EN"
 "http://www.w3.org/TR/2001/REC-SVG-20010904/DTD/svg10.dtd">
<svg version="1.0" xmlns="http://www.w3.org/2000/svg"
 width="500.000000pt" height="500.000000pt" viewBox="0 0 500.000000 500.000000"
 preserveAspectRatio="xMidYMid meet">
<metadata>
Created by potrace 1.14, written by Peter Selinger 2001-2017
</metadata>
<g transform="translate(0.000000,500.000000) scale(0.100000,-0.100000)"
fill="#000000" stroke="none">
<path d="M4051 4668 c-18 -17 -39 -44 -48 -60 -10 -15 -21 -28 -25 -28 -4 0
-8 -5 -8 -11 0 -7 -11 -22 -24 -34 -14 -13 -22 -25 -19 -28 3 -3 -4 -12 -16
-19 -12 -7 -21 -16 -21 -20 0 -4 -56 -77 -125 -163 -126 -157 -147 -187 -152
-215 -4 -26 36 -78 60 -78 16 -1 47 -45 39 -56 -73 -113 -119 -186 -129 -202
-6 -10 -35 -56 -62 -100 -64 -102 -66 -129 -12 -175 22 -19 49 -41 62 -50 19
-13 20 -18 9 -40 -7 -13 -16 -26 -19 -29 -4 -3 -33 -48 -64 -100 -32 -52 -85
-137 -118 -189 -32 -51 -59 -104 -59 -117 0 -13 12 -37 28 -52 58 -60 232
-146 337 -167 22 -5 42 -9 45 -10 3 -1 23 -5 45 -10 22 -5 43 -10 48 -11 4 -1
15 -2 25 -3 16 -1 17 -15 17 -157 -1 -128 2 -161 16 -183 l17 -27 207 0 c157
1 209 4 213 14 2 6 10 12 18 12 17 0 16 -9 18 177 1 83 5 155 9 160 4 4 18 8
30 9 42 4 86 12 95 18 5 3 19 7 33 10 50 10 65 15 94 27 17 7 33 12 37 11 4
-1 34 14 68 33 34 19 64 35 67 35 2 0 11 6 18 13 29 25 40 33 58 40 25 9 24
110 -2 136 -10 10 -21 30 -25 45 -3 14 -13 26 -21 26 -9 0 -15 10 -15 25 0 14
-9 34 -19 44 -10 10 -22 28 -26 40 -3 12 -12 21 -19 21 -8 0 -16 14 -19 30 -4
18 -13 30 -22 30 -9 0 -15 9 -15 26 0 17 -6 28 -19 31 -37 9 -32 93 5 93 8 0
14 6 14 14 0 7 9 16 20 19 12 3 20 14 20 26 0 12 6 21 14 21 8 0 16 6 19 13 6
20 -4 47 -19 47 -8 0 -14 9 -14 19 0 29 -11 51 -25 51 -7 0 -15 14 -18 30 -4
18 -13 30 -22 30 -9 0 -15 9 -15 26 0 17 -6 28 -20 31 -13 4 -20 14 -20 30 0
16 -7 27 -20 30 -13 3 -20 14 -20 29 0 13 -8 32 -17 42 -10 9 -24 30 -31 46
-11 25 -10 30 9 47 12 10 26 19 31 19 4 0 8 6 8 14 0 7 9 16 20 19 14 4 20 14
20 35 0 40 -9 62 -25 62 -7 0 -16 11 -19 25 -4 14 -13 25 -21 25 -8 0 -15 9
-15 20 0 11 -9 25 -20 32 -11 7 -20 18 -20 25 0 6 -8 18 -18 25 -10 7 -21 21
-25 31 -3 9 -13 17 -22 17 -8 0 -15 9 -15 20 0 11 -9 25 -20 32 -11 7 -20 18
-20 25 0 7 -9 18 -20 25 -11 7 -20 18 -20 25 0 7 -9 18 -20 25 -11 7 -20 18
-20 25 0 6 -8 18 -18 25 -10 7 -21 21 -25 31 -3 9 -13 17 -22 17 -10 0 -15 9
-15 26 0 17 -6 28 -20 31 -11 3 -20 11 -20 19 0 17 -12 24 -49 29 -22 2 -37
-4 -60 -27z"/>
<path d="M1465 4400 c-4 -6 -11 -8 -16 -5 -5 4 -9 2 -9 -2 0 -5 -12 -14 -27
-20 -38 -16 -114 -61 -135 -81 -10 -8 -18 -12 -18 -7 0 4 -15 -4 -34 -19 -19
-14 -37 -26 -40 -26 -4 0 -370 -216 -406 -240 -8 -6 -22 -13 -30 -17 -8 -3
-38 -21 -67 -39 -28 -18 -54 -30 -57 -27 -3 4 -6 1 -6 -5 0 -7 -7 -12 -15 -12
-8 0 -15 -4 -15 -8 0 -5 -18 -17 -41 -27 -79 -36 -103 -110 -55 -170 21 -26
31 -30 73 -30 l48 0 2 -540 c1 -297 3 -549 5 -560 5 -32 30 -61 63 -71 19 -7
324 -10 825 -9 797 2 850 4 850 36 0 7 8 17 17 24 15 12 17 58 17 566 l1 554
35 0 c19 1 47 6 63 13 26 11 27 15 27 83 0 62 -2 71 -20 76 -11 3 -20 9 -20
14 0 5 -20 18 -44 29 -25 11 -48 25 -51 30 -4 6 -11 8 -16 5 -5 -4 -9 -1 -9 5
0 6 -10 15 -22 20 -24 10 -59 31 -68 40 -3 3 -23 15 -45 26 -78 42 -140 77
-155 89 -8 7 -44 28 -80 46 -36 19 -71 39 -77 46 -7 6 -26 17 -43 25 -16 7
-30 16 -30 20 0 5 -9 8 -20 8 -11 0 -20 4 -20 8 0 5 -18 17 -40 28 -22 10 -40
22 -40 27 0 4 -9 7 -20 7 -11 0 -20 3 -20 8 0 7 -29 25 -108 69 -45 24 -96 30
-107 13z"/>
<path d="M2445 2318 c-29 -33 -56 -84 -48 -92 3 -3 1 -6 -5 -6 -7 0 -12 -9
-12 -20 0 -11 -5 -20 -11 -20 -5 0 -8 -4 -4 -9 3 -5 1 -12 -5 -16 -5 -3 -10
-15 -10 -25 0 -10 -4 -20 -10 -22 -5 -1 -11 -12 -14 -23 -9 -43 -19 -65 -29
-65 -6 0 -7 -3 -4 -7 4 -3 0 -17 -8 -30 -9 -13 -13 -23 -11 -23 2 0 -4 -17
-14 -37 -15 -32 -18 -78 -5 -92 3 -2 38 -4 79 -5 86 -1 105 -12 89 -50 -15
-32 0 -46 49 -46 39 0 43 5 50 70 3 24 7 25 68 26 36 1 71 2 78 3 15 1 17 107
2 116 -6 4 -8 11 -5 16 4 5 -1 9 -9 9 -11 0 -16 9 -16 29 0 17 -5 33 -10 36
-6 4 -8 11 -5 16 4 5 -1 9 -9 9 -10 0 -16 9 -16 24 0 35 -10 56 -26 56 -9 0
-14 11 -14 29 0 39 -9 61 -26 61 -9 0 -14 12 -14 35 0 25 -5 38 -17 42 -10 4
-23 13 -28 20 -9 12 -14 10 -30 -9z"/>
<path d="M2997 2182 c-50 -12 -72 -27 -128 -83 -26 -25 -75 -109 -64 -109 3 0
1 -9 -5 -20 -8 -15 -8 -20 2 -20 9 0 9 -3 2 -8 -20 -13 -6 -99 27 -159 30 -56
55 -79 131 -117 l63 -33 5 -114 5 -114 30 0 c51 -1 56 9 55 109 -2 132 -2 136
16 136 32 0 90 35 137 82 43 44 47 52 47 98 0 38 4 50 15 50 10 0 15 11 15 35
0 24 -5 35 -15 35 -11 0 -15 12 -15 44 0 53 -8 76 -25 76 -7 0 -16 11 -19 25
-4 14 -13 25 -20 25 -8 0 -16 7 -20 15 -3 8 -12 15 -21 15 -8 0 -15 4 -15 8 0
12 -69 34 -114 36 -21 1 -61 -4 -89 -12z"/>
<path d="M1950 1772 c0 -4 -12 -8 -28 -8 -37 -2 -102 -33 -140 -67 -25 -23
-118 -45 -199 -48 -109 -4 -244 -40 -281 -76 -7 -7 -17 -13 -22 -13 -26 0
-144 -149 -143 -180 0 -3 -2 -11 -5 -18 -10 -27 6 -158 24 -197 23 -49 134
-162 147 -149 9 10 30 -28 34 -63 4 -41 -9 -82 -41 -128 -59 -83 -52 -162 22
-230 30 -28 139 -83 192 -97 92 -25 243 -48 312 -48 95 0 118 -10 188 -78 56
-55 146 -106 210 -118 56 -10 150 -11 150 -2 0 5 4 7 9 3 12 -7 117 32 135 51
8 8 20 14 26 14 6 0 13 7 16 15 4 8 13 15 20 15 8 0 17 7 20 15 4 8 14 15 24
15 10 0 20 3 22 8 2 4 35 18 73 31 52 17 99 24 185 27 153 6 276 22 326 44 23
10 60 36 83 59 38 38 41 45 41 96 0 56 21 136 66 251 17 44 22 75 20 115 -5
72 -4 69 -21 69 -10 0 -15 10 -15 31 0 22 -5 32 -20 36 -11 3 -20 12 -20 19 0
19 -83 71 -135 86 -22 6 -80 12 -130 13 -114 3 -172 13 -179 31 -3 8 -12 14
-21 14 -8 0 -15 9 -15 19 0 11 -8 26 -19 33 -10 7 -22 28 -25 46 -4 18 -14 32
-22 32 -8 0 -14 4 -14 9 0 28 -113 113 -150 113 -3 0 -16 4 -29 9 -13 5 -72
12 -130 15 -124 7 -168 18 -176 45 -4 10 -13 19 -21 19 -8 0 -14 7 -14 15 0 9
-8 19 -17 22 -10 4 -22 12 -26 20 -4 7 -13 13 -18 13 -6 0 -17 7 -25 15 -8 8
-34 20 -57 26 -50 14 -187 22 -187 11z"/>
</g>
</svg>
